# AST/ASF file generated using VICON BodyLanguage
# -----------------------------------------------
:version 1.10
:name VICON
:units
  mass 1.0
  length 0.45
  angle deg
:documentation
   .ast/.asf automatically generated from VICON data using
   VICON BodyBuilder and BodyLanguage model FoxedUp or BRILLIANT.MOD
:root
   order TX TY TZ RX RY RZ
   axis XYZ
   position 0 0 0  
   orientation 0 0 0 
:bonedata
  begin
     id 1 
     name lhipjoint
     direction 0.589753 -0.68606 0.426044 
     length 2.54082 
     axis 0 0 0  XYZ
  end
  begin
     id 2 
     name lfemur
     direction 0.34202 -0.939693 0  
     length 7.04539  
     axis 0 0 20  XYZ
    dof rx ry rz
    limits (-160.0 20.0)
           (-70.0 70.0)
           (-60.0 70.0)
  end
  begin
     id 3 
     name ltibia
     direction 0.34202 -0.939693 0   
     length 7.83772   
     axis 0 0 20   XYZ
    dof rx
    limits (-10.0 170.0)
  end
  begin
     id 4 
     name lfoot
     direction 0.0596604 -0.163915 0.984669   
     length 2.39542   
     axis -90 7.62852e-016 20   XYZ
    dof rx rz
    limits (-45.0 90.0)
           (-70.0 20.0)
  end
  begin
     id 5 
     name ltoes
     direction 1.53514e-011 -4.21954e-011 1   
     length 1.2047   
     axis -90 7.62852e-016 20   XYZ
    dof rx
    limits (-90.0 20.0)
  end
  begin
     id 6 
     name rhipjoint
     direction -0.580585 -0.69168 0.429534   
     length 2.52018  
     axis 0 0 0  XYZ 
  end
  begin
     id 7 
     name rfemur
     direction -0.34202 -0.939693 0   
     length 7.0101   
     axis 0 0 -20   XYZ
    dof rx ry rz
    limits (-160.0 20.0)
           (-70.0 70.0)
           (-70.0 60.0)
  end
  begin
     id 8 
     name rtibia
     direction -0.34202 -0.939693 0   
     length 7.70628   
     axis 0 0 -20   XYZ
    dof rx
    limits (-10.0 170.0)
 end
 begin
     id 9 
     name rfoot
     direction -0.0696237 -0.19129 0.979061   
     length 2.52466  
     axis -90 -7.62852e-016 -20   XYZ
    dof rx rz
    limits (-45.0 90.0)
           (-20.0 70.0)
  end
  begin
     id 10 
     name rtoes
     direction -1.53519e-011 -4.21793e-011 1   
     length 1.266   
     axis -90 -7.62852e-016 -20   XYZ
    dof rx
    limits (-90.0 20.0)
  end
  begin
     id 11 
     name lowerback
     direction 0.00381965 0.995707 -0.0924856   
     length 2.20825   
     axis 0 0 0   XYZ
    dof rx ry rz
    limits (-20.0 45.0)
           (-30.0 30.0)
           (-30.0 30.0)
  end
  begin
     id 12 
     name upperback
     direction -0.0139043 0.999634 -0.0231929   
     length 2.21517   
     axis 0 0 0   XYZ
    dof rx ry rz
    limits (-20.0 45.0)
           (-30.0 30.0)
           (-30.0 30.0)
  end
  begin
     id 13 
     name thorax
     direction -0.0143933 0.999691 0.0202892   
     length 2.22911   
     axis 0 0 0   XYZ
    dof rx ry rz
    limits (-20.0 45.0)
           (-30.0 30.0)
           (-30.0 30.0)
  end
  begin
     id 14 
     name lowerneck
     direction -0.0251153 0.981819 0.188153   
     length 1.61782   
     axis 0 0 0   XYZ
    dof rx ry rz
    limits (-20.0 45.0)
           (-30.0 30.0)
           (-30.0 30.0)
  end
  begin
     id 15 
     name upperneck
     direction 0.0563891 0.969357 -0.239095   
     length 1.64526   
     axis 0 0 0   XYZ
    dof rx ry rz
    limits (-20.0 45.0)
           (-30.0 30.0)
           (-30.0 30.0)
  end
  begin
     id 16
     name head
     direction 0.0208328 0.99459 -0.101773  
     length 1.67436  
     axis 0 0 0   XYZ
    dof rx ry rz
    limits (-20.0 45.0)
           (-30.0 30.0)
           (-30.0 30.0)
  end
  begin
     id 17 
     name lclavicle
     direction 0.917689 0.397224 0.00772059  
     length 3.31102  
     axis 0 0 0   XYZ
    dof ry rz
    limits (-20.0 10.0)
           (0.0 20.0)
  end
  begin
     id 18 
     name lhumerus
     direction 1 -4.4896e-011 2.32308e-027   
     length 5.25537   
     axis 180 -30 -90   XYZ
    dof rx ry rz
    limits (-60.0 90.0)
           (-90.0 90.0)
           (-90.0 90.0)
  end
  begin
     id 19
     name lradius
     direction 1 -4.49005e-011 -2.04271e-027   
     length 3.38855   
     axis 180 -30 -90   XYZ
    dof rx
    limits (-10.0 170.0)
  end
  begin
     id 20
     name lwrist
     direction 1 -4.48892e-011 2.56952e-028   
     length 1.69428   
     axis -5.12785e-016 90 90   XYZ
    dof ry
    limits (-180.0 0.0)
 end
  begin
     id 21 
     name lhand
     direction 1 -4.48966e-011 5.13905e-028   
     length 0.614516   
     axis -3.27915e-016 90 90   XYZ
    dof rx rz
    limits (-90.0 90.0)
           (-45.0 45.0)
  end
  begin
     id 22 
     name lfingers
     direction 1 -4.48979e-011 1.02781e-027   
     length 0.495439   
     axis -6.5583e-016 90 90   XYZ
    dof rx
    limits (0.0 90.0)
  end
  begin
     id 23
     name lthumb
     direction 0.707107 -6.35001e-011 0.707107   
     length 0.711354   
     axis -90 45 2.85299e-015   XYZ
    dof rx rz
    limits (-45.0 45.0)
           (-45.0 45.0)
  end
  begin
     id 24 
     name rclavicle
     direction -0.938556 0.342765 -0.0403177   
     length 3.27019  
     axis 0 0 0   XYZ 
    dof ry rz
    limits (-10.0 20.0)
           (-20.0 0.0)
  end
  begin
     id 25 
     name rhumerus
     direction -1 -4.48966e-011 2.52291e-027  
     length 5.38183   
     axis 180 30 90   XYZ
    dof rx ry rz
    limits (-90.0 60.0)
           (-90.0 90.0)
           (-90.0 90.0)
  end
  begin
     id 26 
     name rradius
     direction -1 -4.4896e-011 1.5797e-027   
     length 3.16988   
     axis 180 30 90   XYZ
    dof rx
    limits (-10.0 170.0)
  end
  begin
     id 27 
     name rwrist
     direction -1 -4.48947e-011 2.56952e-028   
     length 1.58494   
     axis -5.12785e-016 -90 -90   XYZ
    dof ry
    limits (-180.0 0.0)
  end
  begin
     id 28
     name rhand
     direction -1 -4.49098e-011 5.13905e-028   
     length 0.637679   
     axis -3.27915e-016 -90 -90   XYZ
    dof rx rz
    limits (-90.0 90.0)
           (-45.0 45.0)
  end
  begin
     id 29
     name rfingers
     direction -1 -4.49026e-011 1.02781e-027   
     length 0.514113   
     axis -6.5583e-016 -90 -90   XYZ
    dof rx
    limits (0.0 90.0)
  end
  begin
     id 30
     name rthumb
     direction -0.707107 -6.3491e-011 0.707107   
     length 0.738167   
     axis -90 -45 -2.85299e-015   XYZ
    dof rx rz
    limits (-45.0 45.0)
           (-45.0 45.0)
  end
:hierarchy
  begin
    root lhipjoint rhipjoint lowerback
    lhipjoint lfemur
    lfemur ltibia
    ltibia lfoot
    lfoot ltoes
    rhipjoint rfemur
    rfemur rtibia
    rtibia rfoot
    rfoot rtoes
    lowerback upperback
    upperback thorax
    thorax lowerneck lclavicle rclavicle
    lowerneck upperneck
    upperneck head
    lclavicle lhumerus
    lhumerus lradius
    lradius lwrist
    lwrist lhand lthumb
    lhand lfingers
    rclavicle rhumerus
    rhumerus rradius
    rradius rwrist
    rwrist rhand rthumb
    rhand rfingers
  end

#!OML:ASF H:\Swim\Project 1\Capture day 1\Session 1\swimmer.ASF
:FULLY-SPECIFIED
:DEGREES
1
root 8.25708 15.4992 29.6244 -178.858 -9.12415 177.807
lowerback 10.2085 -0.423169 1.10552
upperback 2.67548 -0.708418 -1.19126
thorax -2.96503 -0.450733 -1.76392
lowerneck -31.4471 5.92067 1.20939
upperneck 24.8412 7.36797 1.07164
head 13.5852 3.43204 1.71459
rclavicle -1.39864e-014 -8.52289e-015
rhumerus 43.679 -11.8744 -50.1374
rradius 61.9596
rwrist 4.31847
rhand 45.033 -6.04411
rfingers 7.12502
rthumb 66.412 -10.6797
lclavicle -1.39864e-014 -8.52289e-015
lhumerus 44.2032 6.77705 46.2677
lradius 64.979
lwrist -2.22578
lhand 53.5556 13.6338
lfingers 7.12502
lthumb 72.0847 1.2294
rfemur -23.7272 -15.8683 5.6871
rtibia 53.3036
rfoot -20.3311 -17.5434
rtoes -14.133
lfemur -28.3802 3.67209 -10.7756
ltibia 52.6079
lfoot -19.5673 6.62147
ltoes -15.2199
2
root 8.25791 15.5092 29.6238 -178.843 -9.17342 177.815
lowerback 10.1848 -0.452252 1.10381
upperback 2.67919 -0.745325 -1.15494
thorax -2.94913 -0.468585 -1.72079
lowerneck -31.4082 6.05016 1.26629
upperneck 24.8185 7.58186 0.903312
head 13.5782 3.50448 1.68032
rclavicle -9.16894e-015 2.03754e-015
rhumerus 43.6183 -12.2934 -51.1109
rradius 62.9405
rwrist 4.68993
rhand 45.2841 -6.17228
rfingers 7.12502
rthumb 66.6028 -10.4322
lclavicle -9.16894e-015 2.03754e-015
lhumerus 43.6935 7.12462 46.8453
lradius 66.1521
lwrist -2.7348
lhand 54.1399 14.062
lfingers 7.12502
lthumb 72.3928 0.107724
rfemur -23.6372 -15.8103 5.7189
rtibia 53.1374
rfoot -20.3224 -17.6204
rtoes -13.982
lfemur -28.3162 3.6234 -10.7701
ltibia 52.4389
lfoot -19.517 6.57466
ltoes -15.1305
3
root 8.25843 15.5195 29.6238 -178.804 -9.22155 177.774
lowerback 10.1605 -0.472464 1.07319
upperback 2.67583 -0.774847 -1.15656
thorax -2.94005 -0.482784 -1.70166
lowerneck -31.3914 6.18221 1.39672
upperneck 24.8266 7.76832 0.719297
head 13.5934 3.56876 1.62467
rclavicle -3.98191e-015 9.19379e-016
rhumerus 43.413 -12.6744 -51.8484
rradius 63.9423
rwrist 4.8743
rhand 45.0105 -6.65522
rfingers 7.12502
rthumb 66.3949 -11.3241
lclavicle -3.98191e-015 9.19379e-016
lhumerus 43.2753 7.41346 47.3286
lradius 67.2254
lwrist -3.17261
lhand 54.0896 13.9466
lfingers 7.12502
lthumb 72.3668 0.12776
rfemur -23.5738 -15.7902 5.6913
rtibia 52.985
rfoot -20.2999 -17.6671
rtoes -14.0049
lfemur -28.2799 3.5762 -10.8249
ltibia 52.2884
lfoot -19.4646 6.53275
ltoes -15.0022
4
root 8.25808 15.5281 29.6254 -178.757 -9.22983 177.785
lowerback 10.1426 -0.471267 1.12686
upperback 2.65057 -0.766339 -1.17838
thorax -2.95698 -0.478097 -1.75572
lowerneck -31.2928 6.27958 1.53955
upperneck 24.7807 7.88476 0.579273
head 13.5698 3.6132 1.56609
rclavicle 2.1065e-014 -8.59744e-015
rhumerus 43.1815 -13.0341 -52.4454
rradius 64.8582
rwrist 5.15249
rhand 45.2183 -6.77858
rfingers 7.12502
rthumb 66.5529 -11.1376
lclavicle 2.1065e-014 -8.59744e-015
lhumerus 43.0254 7.57995 47.6413
lradius 67.978
lwrist -3.25005
lhand 54.3432 14.0646
lfingers 7.12502
lthumb 72.4968 -0.442004
rfemur -23.5512 -15.7399 5.72792
rtibia 52.8369
rfoot -20.2662 -17.7048
rtoes -13.9256
lfemur -28.2709 3.57074 -10.8264
ltibia 52.149
lfoot -19.4081 6.51327
ltoes -14.9262
5
root 8.25806 15.5368 29.6267 -178.717 -9.25877 177.774
lowerback 10.131 -0.480447 1.14805
upperback 2.64012 -0.775868 -1.19096
thorax -2.96218 -0.482607 -1.77959
lowerneck -31.2263 6.37573 1.64271
upperneck 24.7376 8.01445 0.452313
head 13.5511 3.66125 1.52277
rclavicle 8.21229e-015 -1.02623e-014
rhumerus 42.984 -13.3921 -53.0691
rradius 65.7932
rwrist 5.46118
rhand 45.3222 -6.91361
rfingers 7.12502
rthumb 66.6317 -11.116
lclavicle 8.21229e-015 -1.02623e-014
lhumerus 42.7318 7.79499 48.0002
lradius 68.8042
lwrist -3.40555
lhand 54.4648 14.1503
lfingers 7.12502
lthumb 72.5582 -0.68971
rfemur -23.5118 -15.7059 5.73643
rtibia 52.6968
rfoot -20.2446 -17.7442
rtoes -13.8701
lfemur -28.2522 3.54229 -10.8487
ltibia 52.0161
lfoot -19.36 6.488
ltoes -14.8376
6
root 8.25797 15.5448 29.6286 -178.677 -9.28855 177.765
lowerback 10.1256 -0.48693 1.17674
upperback 2.63185 -0.781544 -1.20889
thorax -2.96861 -0.485391 -1.81369
lowerneck -31.1541 6.45436 1.72926
upperneck 24.6818 8.11797 0.353054
head 13.524 3.70123 1.48716
rclavicle -6.54747e-015 2.60905e-015
rhumerus 42.7842 -13.7353 -53.6188
rradius 66.6817
rwrist 5.81398
rhand 45.4368 -6.95932
rfingers 7.12502
rthumb 66.7183 -10.9877
lclavicle -6.54747e-015 2.60905e-015
lhumerus 42.4958 7.98651 48.3239
lradius 69.5221
lwrist -3.48757
lhand 54.5196 14.2205
lfingers 7.12502
lthumb 72.5856 -0.770511
rfemur -23.4807 -15.6788 5.74449
rtibia 52.5677
rfoot -20.2251 -17.7767
rtoes -13.8162
lfemur -28.2454 3.51371 -10.8705
ltibia 51.8996
lfoot -19.3167 6.46824
ltoes -14.761
7
root 8.25773 15.5519 29.6311 -178.638 -9.31796 177.76
lowerback 10.1274 -0.492317 1.21355
upperback 2.62688 -0.785223 -1.22625
thorax -2.97556 -0.487364 -1.85199
lowerneck -31.0798 6.51698 1.79235
upperneck 24.6165 8.20198 0.277882
head 13.4903 3.73463 1.46043
rclavicle 2.67117e-015 -6.70898e-015
rhumerus 42.6008 -14.0574 -54.1069
rradius 67.5052
rwrist 6.20488
rhand 45.5664 -6.9065
rfingers 7.12502
rthumb 66.816 -10.7367
lclavicle 2.67117e-015 -6.70898e-015
lhumerus 42.301 8.16446 48.6239
lradius 70.1457
lwrist -3.5318
lhand 54.5503 14.2987
lfingers 7.12502
lthumb 72.601 -0.777084
rfemur -23.4589 -15.6575 5.75591
rtibia 52.4507
rfoot -20.206 -17.8044
rtoes -13.7604
lfemur -28.2484 3.48706 -10.8881
ltibia 51.7963
lfoot -19.2745 6.45421
ltoes -14.7066
8
root 8.25745 15.5579 29.6343 -178.6 -9.35178 177.76
lowerback 10.1335 -0.498742 1.25337
upperback 2.62728 -0.790239 -1.23984
thorax -2.9793 -0.490144 -1.88789
lowerneck -31.0097 6.56727 1.83366
upperneck 24.5507 8.27228 0.222544
head 13.4551 3.76311 1.44225
rclavicle 6.59406e-015 1.963e-015
rhumerus 42.4421 -14.3537 -54.5378
rradius 68.2507
rwrist 6.59574
rhand 45.6711 -6.8016
rfingers 7.12502
rthumb 66.8947 -10.4702
lclavicle 6.59406e-015 1.963e-015
lhumerus 42.1372 8.3349 48.9082
lradius 70.6897
lwrist -3.58093
lhand 54.5244 14.3616
lfingers 7.12502
lthumb 72.5881 -0.642787
rfemur -23.4445 -15.6462 5.76933
rtibia 52.3493
rfoot -20.1898 -17.8273
rtoes -13.7049
lfemur -28.2636 3.45836 -10.9015
ltibia 51.7121
lfoot -19.2381 6.44063
ltoes -14.6516
9
root 8.25697 15.5628 29.6381 -178.562 -9.38304 177.763
lowerback 10.1412 -0.504003 1.29527
upperback 2.63019 -0.793415 -1.24771
thorax -2.98126 -0.492045 -1.91926
lowerneck -30.947 6.60739 1.85835
upperneck 24.4959 8.3325 0.177932
head 13.4245 3.78688 1.42937
rclavicle 1.07623e-014 -3.72721e-016
rhumerus 42.3088 -14.6191 -54.9115
rradius 68.9097
rwrist 6.9392
rhand 45.7405 -6.6872
rfingers 7.12502
rthumb 66.9468 -10.2482
lclavicle 1.07623e-014 -3.72721e-016
lhumerus 41.9957 8.49775 49.1827
lradius 71.1714
lwrist -3.66939
lhand 54.4935 14.4311
lfingers 7.12502
lthumb 72.5726 -0.487908
rfemur -23.4459 -15.642 5.78595
rtibia 52.2658
rfoot -20.172 -17.8445
rtoes -13.6496
lfemur -28.2951 3.4333 -10.9108
ltibia 51.6497
lfoot -19.2067 6.42676
ltoes -14.5942
10
root 8.25639 15.5666 29.6424 -178.525 -9.41535 177.772
lowerback 10.1501 -0.50948 1.33695
upperback 2.6357 -0.796749 -1.24841
thorax -2.98105 -0.494033 -1.94303
lowerneck -30.8917 6.64323 1.87766
upperneck 24.4581 8.38859 0.135153
head 13.402 3.808 1.41795
rclavicle 2.42331e-014 4.79568e-015
rhumerus 42.2064 -14.8512 -55.2349
rradius 69.4762
rwrist 7.19054
rhand 45.769 -6.62207
rfingers 7.12502
rthumb 66.9681 -10.1387
lclavicle 2.42331e-014 4.79568e-015
lhumerus 41.8712 8.64982 49.44
lradius 71.5969
lwrist -3.81058
lhand 54.4492 14.4913
lfingers 7.12502
lthumb 72.5504 -0.305845
rfemur -23.4592 -15.6477 5.80673
rtibia 52.2011
rfoot -20.1515 -17.8595
rtoes -13.61
lfemur -28.3404 3.40904 -10.9146
ltibia 51.6078
lfoot -19.1797 6.41558
ltoes -14.5399
11
root 8.25562 15.5692 29.647 -178.487 -9.44505 177.782
lowerback 10.1596 -0.515035 1.37447
upperback 2.643 -0.800473 -1.24301
thorax -2.9792 -0.496198 -1.95808
lowerneck -30.8481 6.67592 1.89215
upperneck 24.4435 8.4419 0.0942366
head 13.3911 3.82688 1.40847
rclavicle -1.85429e-014 -3.55328e-015
rhumerus 42.1352 -15.0456 -55.5115
rradius 69.956
rwrist 7.32305
rhand 45.7521 -6.64251
rfingers 7.12502
rthumb 66.9555 -10.1854
lclavicle -1.85429e-014 -3.55328e-015
lhumerus 41.7601 8.79413 49.6777
lradius 71.9766
lwrist -4.00743
lhand 54.3725 14.5403
lfingers 7.12502
lthumb 72.5117 -0.0465425
rfemur -23.4862 -15.6608 5.82707
rtibia 52.1561
rfoot -20.1326 -17.8669
rtoes -13.5766
lfemur -28.3972 3.38557 -10.9166
ltibia 51.5854
lfoot -19.1579 6.40525
ltoes -14.4734
